<svg width="38" height="30.999999999999996" xmlns="http://www.w3.org/2000/svg">

 <g>
  <title>background</title>
  <rect fill="none" id="canvas_background" height="402" width="582" y="-1" x="-1"/>
 </g>
 <g>
  <title>Layer 1</title>
  <path id="svg_1" fill="#B3B3B3" d="m17.8599,0l-14.23002,10.7673l0,8.9384l14.23002,10.7673c-0.03,-22.971 0,-11.6973 0,-30.473z"/>
  <path id="svg_2" fill="#B3B3B3" d="m0,22.6502l7.47,0l0,-14.83868l-7.47,0l0,14.83868z"/>
  <path id="svg_3" fill="#B3B3B3" d="m27.0001,30.1114c-0.3441,0.0008 -0.6807,-0.1037 -0.9672,-0.3006c-0.2866,-0.1967 -0.5103,-0.477 -0.6428,-0.805c-0.0907,-0.2198 -0.1386,-0.4561 -0.141,-0.695c-0.0023,-0.239 0.0409,-0.476 0.1273,-0.6978c0.0864,-0.2216 0.2142,-0.4235 0.3761,-0.5941c0.1619,-0.1706 0.3548,-0.3066 0.5676,-0.4002c1.4144,-0.6195 2.6984,-1.5181 3.78,-2.6453c2.2328,-2.3206 3.4873,-5.4593 3.49,-8.7317c-0.0107,-3.2768 -1.2762,-6.41602 -3.52,-8.73164c-1.0837,-1.1273 -2.3669,-2.02888 -3.78,-2.65566c-0.4273,-0.18898 -0.7649,-0.54495 -0.9391,-0.99023c-0.1743,-0.44526 -0.171,-0.94367 0.0091,-1.38644c0.0863,-0.22097 0.2146,-0.42175 0.3775,-0.59043c0.1628,-0.16868 0.3568,-0.3018 0.5705,-0.39145c0.2136,-0.08965 0.4425,-0.134 0.6731,-0.13041c0.2305,0.00358 0.458,0.05503 0.6689,0.15129c3.6919,1.62786 6.6282,4.67308 8.19,8.494c0.8052,1.96107 1.2201,4.06967 1.22,6.20007c-0.001,2.1291 -0.4123,4.2367 -1.21,6.1999c-0.773,1.8979 -1.8974,3.6214 -3.31,5.0737c-1.3925,1.4817 -3.0542,2.6651 -4.89,3.4824c-0.2047,0.0938 -0.426,0.1431 -0.65,0.1446z"/>
  <path id="svg_4" fill="#B3B3B3" d="m23.6901,22.8162c-0.3806,-0.0006 -0.7493,-0.137 -1.0437,-0.3862c-0.2944,-0.2492 -0.4964,-0.5959 -0.5717,-0.9815c-0.0754,-0.3855 -0.0194,-0.786 0.1584,-1.1337c0.1777,-0.3477 0.4664,-0.6214 0.817,-0.7743c0.8156,-0.3582 1.5106,-0.9572 1.9981,-1.7218c0.4874,-0.7648 0.7455,-1.6612 0.7419,-2.5769c0.0035,-0.6211 -0.1156,-1.2365 -0.35,-1.8083c-0.2369,-0.5553 -0.5766,-1.0573 -1,-1.4777c-0.4088,-0.4352 -0.8942,-0.7859 -1.43,-1.0333c-0.3536,-0.204 -0.6217,-0.5359 -0.7526,-0.93191c-0.131,-0.39599 -0.1155,-0.82803 0.0435,-1.21293c0.1589,-0.38489 0.45,-0.69542 0.8172,-0.87177c0.3673,-0.17636 0.7847,-0.20607 1.1719,-0.08341c1.1725,0.51854 2.205,1.32486 3.0077,2.34902c0.8028,1.0241 1.3516,2.2352 1.5989,3.5282c0.2473,1.2929 0.1856,2.6287 -0.1798,3.8913c-0.3653,1.2627 -1.0233,2.4143 -1.9168,3.3548c-0.7058,0.7371 -1.5451,1.3234 -2.47,1.7257c-0.2018,0.0922 -0.4194,0.1414 -0.64,0.1447z"/>
  <line stroke="#B3B3B3" id="svg_6" y2="30" x2="37" y1="1" x1="1.636364" stroke-width="3" fill="none"/>
 </g>
</svg>